<svg id="Layer_1" data-name="Layer 1" xmlns="http://www.w3.org/2000/svg" preserveAspectRatio="none" viewBox="0 0 95.8 95.9">
  <title>84a96872-342e-4a0c-b04b-edcd47b2f929</title>
  <path d="M70,78.4l.7.3,1,.6,1.1.8,1,.9a4.3,4.3,0,0,1,.7,1.1,2.8,2.8,0,0,1,.3,1.2v7.6a4.8,4.8,0,0,1-1.5,3.6,4.9,4.9,0,0,1-3.6,1.5H5a4.9,4.9,0,0,1-3.6-1.5A4.8,4.8,0,0,1,0,90.8V83.2a3.6,3.6,0,0,1,1.4-2.5,12.9,12.9,0,0,1,2.2-1.8L5,78.2,24.4,67.7a22.7,22.7,0,0,1-7.1-10.5A36.2,36.2,0,0,1,15,45.4V32.7a11.6,11.6,0,0,1,1.3-5,17.2,17.2,0,0,1,3.5-4.8,30.7,30.7,0,0,1,5-4A25.4,25.4,0,0,1,31,16.1a22.4,22.4,0,0,1,6.5-1,23.3,23.3,0,0,1,10.7,2.7,24.9,24.9,0,0,1,8.5,6.8,13.3,13.3,0,0,1,3.2,8.2V45.4a39.5,39.5,0,0,1-2.1,12.3A21,21,0,0,1,51,67.8L69.8,78.2Zm-1.2,6.2-1.4-.8-.6-.3L48.1,73a6,6,0,0,1-.8-10,15.4,15.4,0,0,0,5-7.9,33.4,33.4,0,0,0,1.6-9.8V32.7q0-3.6-5.1-7.7a17.8,17.8,0,0,0-11.3-4,18.1,18.1,0,0,0-11.3,4.1q-5.3,4.1-5.3,7.6V45.4a23.9,23.9,0,0,0,.4,4.2,35,35,0,0,0,1.3,4.9,23,23,0,0,0,2.3,4.9A14.3,14.3,0,0,0,28.1,63a5.8,5.8,0,0,1,2.2,5.2,3.2,3.2,0,0,1-.1.9l-.3.9-.5.9-.6.7-.7.7-.8.5L7.9,83.5l-.4.2L6,84.5v5.3H68.8ZM91.9,63.9a10,10,0,0,1,2.6,1.9,3.7,3.7,0,0,1,1.3,2.6v7.5a5.2,5.2,0,0,1-.7,2.6,4.7,4.7,0,0,1-1.8,1.8,5.2,5.2,0,0,1-2.6.7H80.8l-.7-2.4a10,10,0,0,0-.9-1.9,5.9,5.9,0,0,0-1.4-1.7H89.8V69.6l-.3-.2-.3-.2-.4-.2-.3-.2h-.6L68.7,58.2l-1-.7-.8-.8-.6-1-.5-1.1a3.5,3.5,0,0,1-.2-1.1,5.6,5.6,0,0,1,2.2-5.2,16.2,16.2,0,0,0,5.2-8,31.3,31.3,0,0,0,1.7-9.7V17.9q0-3.6-5.2-7.7a18.5,18.5,0,0,0-22.8-.2l-1.4-.3-1.6-.2H39.2a26.7,26.7,0,0,1,8.6-6.5A23.3,23.3,0,0,1,58.2,0a22.5,22.5,0,0,1,8.3,1.6,26.9,26.9,0,0,1,7.2,4.2,23.4,23.4,0,0,1,5.1,5.8,11.9,11.9,0,0,1,2,6.3V30.5a32.9,32.9,0,0,1-.5,5.3,41.6,41.6,0,0,1-1.5,6,26.8,26.8,0,0,1-2.9,6.1,20.1,20.1,0,0,1-4.3,4.9L90.7,63.3Z"/>
</svg>
