<svg id="Layer_1" data-name="Layer 1" xmlns="http://www.w3.org/2000/svg" preserveAspectRatio="none" viewBox="0 0 95.8 95.8">
  <title>05f99269-f7e7-4671-af15-54c218952b1e</title>
  <path d="M66.5,3.8A46.9,46.9,0,0,1,92,29.3a47.6,47.6,0,0,1,0,37.2A46.9,46.9,0,0,1,66.5,92a48,48,0,0,1-42.6-2.6A47.7,47.7,0,0,1,0,47.9,47.7,47.7,0,0,1,23.8,6.4,48,48,0,0,1,66.5,3.8ZM64.2,86.5a41.7,41.7,0,0,0,13.4-9,42.6,42.6,0,0,0,8.9-13.4,41.5,41.5,0,0,0,0-32.5A41.2,41.2,0,0,0,64.2,9.3a41.5,41.5,0,0,0-32.5,0A41.2,41.2,0,0,0,9.3,31.6,41,41,0,0,0,6,47.9,42.1,42.1,0,0,0,8.1,61.1a39.4,39.4,0,0,0,6,11.5,46.9,46.9,0,0,0,9,9.1,38.8,38.8,0,0,0,11.5,6,42.1,42.1,0,0,0,13.2,2.1A41,41,0,0,0,64.2,86.5ZM59,24.6q4,3.6,4,10.2a15.7,15.7,0,0,1-2.5,8.7q-1.3,1.9-3,3.9t-3.8,4.1a13.8,13.8,0,0,0-1.6,1.9,6.1,6.1,0,0,0-.8,1.8,20.3,20.3,0,0,0-.4,5.1H43.6c0-4,.3-6.1.9-7.5a18.7,18.7,0,0,1,4.6-5.5c2.4-2.9,4.1-5.1,5.1-6.6A10.1,10.1,0,0,0,55.4,38a11.6,11.6,0,0,0,.4-3.1,8,8,0,0,0-2.1-5.9,7.1,7.1,0,0,0-2.5-1.6,9.4,9.4,0,0,0-3.4-.6,9.7,9.7,0,0,0-3.1.5,7.8,7.8,0,0,0-2.5,1.4,4.7,4.7,0,0,0-1.7,2.7,14.3,14.3,0,0,0-.6,3.8h-7a16.2,16.2,0,0,1,1-6.1,10.9,10.9,0,0,1,3.1-4.8l1.8-1.2,2-1,2.2-.7,2.3-.4h2.5Q55,20.9,59,24.6ZM43.6,67.3h7v8h-7Z"/>
</svg>
