<svg id="Layer_1" data-name="Layer 1" xmlns="http://www.w3.org/2000/svg" preserveAspectRatio="none" viewBox="0 0 95.8 95.6">
  <title>c7329c23-f458-4473-8552-814e31d92448</title>
  <path d="M95.8,22.6q0,3.3,0,5t-.4,5.8a45.2,45.2,0,0,1-1,6.8,36.6,36.6,0,0,1-2.1,5.9,15.7,15.7,0,0,1-3.5,5.2l-1.2,1.3a22.2,22.2,0,0,1-16.4,7l-2.9-.2-3-.6L62.3,58l-2.8-1.2-35,35.3a11.7,11.7,0,0,1-8.5,3.5,11.7,11.7,0,0,1-8.5-3.5L3.5,87.8a12.3,12.3,0,0,1,0-17.1L38.1,35.5a26.2,26.2,0,0,1-.6-19,22,22,0,0,1,5-8.1L43.8,7a17.4,17.4,0,0,1,5.9-3.9A33.8,33.8,0,0,1,57.8.9C60.7.5,63.3.3,65.6.1S70.4,0,72.9,0h.7a2.9,2.9,0,0,1,1.5.3,2.7,2.7,0,0,1,.6,4.2L62.4,20,76,34.1,91.1,20.5a3,3,0,0,1,1.4-.7,2.4,2.4,0,0,1,1.5.2A3,3,0,0,1,95.8,22.6ZM87.6,42.2a37.6,37.6,0,0,0,1.6-6.5q.5-3.1.7-6.6l-12.3,11a2.7,2.7,0,0,1-2,.7,2.9,2.9,0,0,1-2-.9L56.5,22.2a3,3,0,0,1-.1-3.9L67.3,5.6A76.4,76.4,0,0,0,55.9,7.2Q50.3,8.4,47.8,11l-1.3,1.3a15.2,15.2,0,0,0-3.3,5.6,20.6,20.6,0,0,0-1.2,6.6,28.5,28.5,0,0,0,.6,6.4,18.7,18.7,0,0,0,2.6,5.9L7.7,75a6,6,0,0,0,0,8.5l4.2,4.3a6,6,0,0,0,8.5,0L58.7,49.1a18.3,18.3,0,0,0,5.1,3.4,20.7,20.7,0,0,0,3.6.9,21.4,21.4,0,0,0,3.8.4,17.4,17.4,0,0,0,8.7-2.2,16.7,16.7,0,0,0,3.7-2.8l1.1-1.3A14.2,14.2,0,0,0,87.6,42.2Z"/>
</svg>
