<svg id="Layer_1" data-name="Layer 1" xmlns="http://www.w3.org/2000/svg" preserveAspectRatio="none" viewBox="0 0 95.9 95.8">
  <title>8304a331-54ed-40cd-9173-115e5a565110</title>
  <path d="M92.4,65.8A47.3,47.3,0,0,1,68.5,91.1a47,47,0,0,1-17.6,4.5H48a47.7,47.7,0,0,1-15.1-2.4,45.6,45.6,0,0,1-13.2-6.9A52.9,52.9,0,0,1,9.3,76.2,44.9,44.9,0,0,1,2.4,63,47.7,47.7,0,0,1,0,47.9,47,47,0,0,1,3.8,29.3,47.6,47.6,0,0,1,14,14,48.5,48.5,0,0,1,29.4,3.8,47,47,0,0,1,48,0h2.9a47.8,47.8,0,0,1,12,2.3A47.2,47.2,0,0,1,73.7,7.5,49.9,49.9,0,0,1,82.8,15,47.5,47.5,0,0,1,95.9,47.9,46.6,46.6,0,0,1,92.4,65.8ZM6,47.9A41.6,41.6,0,0,0,8.8,62.9,112.1,112.1,0,0,1,22,60.9a75.7,75.7,0,0,1-1.1-13q0-2.6.1-5.2t.5-5.1A99.9,99.9,0,0,1,7.9,35.3,41.4,41.4,0,0,0,6,47.9Zm13.8-31a43.3,43.3,0,0,0-9.7,12.8,96.8,96.8,0,0,0,12.5,2.1,60.5,60.5,0,0,1,4.4-13A43.5,43.5,0,0,1,33.7,8.5,41.2,41.2,0,0,0,19.8,16.8Zm1,63a40.4,40.4,0,0,0,12.8,7.4,43.7,43.7,0,0,1-6-9.1,59.1,59.1,0,0,1-4.3-11.5q-6.9.8-11.9,1.8A42.7,42.7,0,0,0,20.9,79.9Zm6.9-19.5q8-.7,17.1-.7V38.8H38.4l-5.8-.2-5.2-.3q-.2,1.6-.3,3.2t-.2,3.2q-.1,1.6-.1,3.3A74.3,74.3,0,0,0,27.8,60.3ZM38.1,11.1a34,34,0,0,0-5.8,9,57.6,57.6,0,0,0-3.9,12.1q7.7.7,16.5.7V6.5A16,16,0,0,0,38.1,11.1Zm-9,55.1a63.5,63.5,0,0,0,3.3,9.5Q37.6,87,44.9,89.3V65.6Q36.5,65.6,29.1,66.2ZM50.9,32.9l6.1-.2,5.5-.2,4.9-.3A57.4,57.4,0,0,0,63.5,20a35.6,35.6,0,0,0-5.7-9,14.7,14.7,0,0,0-6.9-4.6Zm17,27.4a74.4,74.4,0,0,0,1-12.4,73.7,73.7,0,0,0-.7-9.8q-7.9.7-17.4.7V59.6Q60.1,59.7,67.9,60.3ZM60.1,81.7a48.8,48.8,0,0,0,6.5-15.5l-7.4-.4-8.4-.2V89.4Q55.9,87.9,60.1,81.7ZM77,17.6A42.5,42.5,0,0,0,64.7,9.4L66.9,13Q68,14.9,69,17t1.8,4.5q.8,2.3,1.4,4.9t1.2,5.2l3.4-.4,2.9-.5,2.3-.5,1.8-.4,1.2-.3.7-.2A41.3,41.3,0,0,0,77,17.6Zm7.4,51.2-2.5-.6L78,67.5l-5.2-.7a62.4,62.4,0,0,1-3.4,10.8,47.5,47.5,0,0,1-4.7,8.7A40.8,40.8,0,0,0,84.4,68.7Zm4.9-13a42.2,42.2,0,0,0-2.4-24l1.1,3.1-1.6.5-4.5,1-7.6,1.1a82.4,82.4,0,0,1,.7,10.4,89.3,89.3,0,0,1-.9,13,89.1,89.1,0,0,1,13.1,2.4A44.3,44.3,0,0,0,89.2,55.8Z"/>
</svg>
