<svg id="Layer_1" data-name="Layer 1" xmlns="http://www.w3.org/2000/svg" preserveAspectRatio="none" viewBox="0 0 96 95.8">
  <title>a548c2a8-33eb-442c-ae02-f3ce08f0aae2</title>
  <path d="M96,92.7a2.9,2.9,0,0,1-.9,2.2,2.9,2.9,0,0,1-2.1.9,3,3,0,0,1-2.2-.9l-29-29.2a36.3,36.3,0,0,1-24.5,9.2A37.3,37.3,0,0,1,5,56.2,36.7,36.7,0,0,1,0,37.4,37.3,37.3,0,0,1,18.6,5,36.6,36.6,0,0,1,37.4,0,37.4,37.4,0,0,1,69.8,18.6a36.7,36.7,0,0,1,5,18.8,36.2,36.2,0,0,1-8.7,23.9L95.2,90.6A2.9,2.9,0,0,1,96,92.7ZM47.3,67.3A29.6,29.6,0,0,0,56,62.8,34.9,34.9,0,0,0,62.7,56a29.6,29.6,0,0,0,4.5-8.7,31.6,31.6,0,0,0,1.6-10,30.8,30.8,0,0,0-4.2-15.8A31.4,31.4,0,0,0,53.2,10.1,30.7,30.7,0,0,0,37.4,5.9a30.7,30.7,0,0,0-15.8,4.3A31.4,31.4,0,0,0,10.1,21.6,30.8,30.8,0,0,0,5.9,37.4a30.8,30.8,0,0,0,4.2,15.8A31.4,31.4,0,0,0,21.6,64.7a30.7,30.7,0,0,0,15.9,4.3A31.2,31.2,0,0,0,47.3,67.3Z"/>
</svg>
