<svg id="Layer_1" data-name="Layer 1" xmlns="http://www.w3.org/2000/svg" preserveAspectRatio="none" viewBox="0 0 95.8 95.8">
  <title>5051fc78-7733-455a-9185-46634446541c</title>
  <path d="M44.7,42.7a2.7,2.7,0,0,1-.2.7L44,44l-.6.5c-.2.1-.4.4-.7.5a3.3,3.3,0,0,1-.8.3H3a3.2,3.2,0,0,1-2.1-1A3,3,0,0,1,0,42,41.4,41.4,0,0,1,3.3,25.6,40.8,40.8,0,0,1,25.5,3.3,41.2,41.2,0,0,1,41.9,0,2.7,2.7,0,0,1,44,.9,2.9,2.9,0,0,1,44.7,3V41.9A3.8,3.8,0,0,1,44.7,42.7Zm-6-36.7A34.5,34.5,0,0,0,16.4,16.6,34.9,34.9,0,0,0,6.1,39.3H38.7Zm36.7,8.2a39,39,0,0,1,15,15.3,44.6,44.6,0,0,1,5.3,21.8,45.2,45.2,0,0,1-.9,9,42.4,42.4,0,0,1-2.6,8.3,45.3,45.3,0,0,1-4.1,7.5,44.1,44.1,0,0,1-12,12,45.5,45.5,0,0,1-7.5,4.1,42.5,42.5,0,0,1-8.3,2.6,45.2,45.2,0,0,1-9,.9,43.9,43.9,0,0,1-21.8-5.5A39.4,39.4,0,0,1,14.2,75.1,43.4,43.4,0,0,1,8.7,53.3a2.9,2.9,0,0,1,.9-2.1,2.9,2.9,0,0,1,2.2-.9,2.8,2.8,0,0,1,2.1.9,3,3,0,0,1,.8,2.1q0,15.9,10.4,26.2T51.3,89.8a37.7,37.7,0,0,0,15-3A37.7,37.7,0,0,0,86.7,66.3a37.7,37.7,0,0,0,3-15,39.6,39.6,0,0,0-2.7-14.6,34.6,34.6,0,0,0-7.3-11.6,33.8,33.8,0,0,0-11.4-7.6,37.3,37.3,0,0,0-14.5-2.8,2.9,2.9,0,0,1-2.2-.8,2.9,2.9,0,0,1-.8-2.1,3,3,0,0,1,.8-2.2,2.8,2.8,0,0,1,2.2-.9A42.4,42.4,0,0,1,75.5,14.3Z"/>
</svg>
