<svg id="Layer_1" data-name="Layer 1" xmlns="http://www.w3.org/2000/svg" preserveAspectRatio="none" viewBox="0 0 95.8 95.8">
  <title>5ace8236-7cd5-48c7-a581-2881f1caa919</title>
  <path d="M76.2,9.3A50.3,50.3,0,0,1,86.5,19.5a46.3,46.3,0,0,1,6.8,13.2,47.7,47.7,0,0,1,2.4,15.1A47,47,0,0,1,92,66.5,46.9,46.9,0,0,1,66.5,92a47.6,47.6,0,0,1-37.2,0A46.9,46.9,0,0,1,3.8,66.5,47,47,0,0,1,0,47.9,47.7,47.7,0,0,1,2.4,32.8,46.3,46.3,0,0,1,9.3,19.5,50.3,50.3,0,0,1,19.5,9.3,46.3,46.3,0,0,1,32.8,2.4,48.1,48.1,0,0,1,63,2.4,46.3,46.3,0,0,1,76.2,9.3ZM64.2,86.5a41.7,41.7,0,0,0,13.4-9,42.6,42.6,0,0,0,8.9-13.4,41.5,41.5,0,0,0,0-32.5A41.2,41.2,0,0,0,64.2,9.3a41.5,41.5,0,0,0-32.5,0A41.2,41.2,0,0,0,9.3,31.6,41,41,0,0,0,6,47.9,42.1,42.1,0,0,0,8.1,61.1a39.4,39.4,0,0,0,6,11.5,46.9,46.9,0,0,0,9,9.1,38.8,38.8,0,0,0,11.5,6,42.1,42.1,0,0,0,13.2,2.1A41,41,0,0,0,64.2,86.5ZM56,69.7a3,3,0,0,1-2.1,5.1h-12a3,3,0,0,1,0-6h3V44.9h-3a3,3,0,0,1,0-6h6a3,3,0,0,1,3,3h0V68.8h3A2.9,2.9,0,0,1,56,69.7ZM41.9,26.9a6,6,0,1,1,10.2,4.3,6,6,0,0,1-10.2-4.3Z"/>
</svg>
